# xmcd CD database file
#
# Track frame offsets:
#	150
#	8862
#	34213
#	38143
#	45952
#	70612
#	79918
#	96382
#	105549
#	116014
#	123646
#	147955
#	173161
#	179753
#	193385
#	198255
#	210797
#	228214
#	238192
#	262860
#
# Disc length: 3697 seconds
#
# Revision: 2
# Processed by: cddbd v1.5.2PL0 Copyright (c) Steve Scherf et al.
# Submitted via: CDex 1.51
#
DISCID=140e6f14
DTITLE=Hans Teeuwen - Dat Dan Weer Wel
DYEAR=2002
DGENRE=Cabaret
TTITLE0=Intro Piano
TTITLE1=Mars
TTITLE2=Waterbuffel
TTITLE3=Taxi
TTITLE4=Positief Denken and Literair Café
TTITLE5=Dat Dan Weer Wel
TTITLE6=Dansen and Sterk Ras
TTITLE7=Nederland
TTITLE8=Meester Van Dijk
TTITLE9=Improvisatie
TTITLE10=Middelbare School
TTITLE11=Stoned
TTITLE12=Genie
TTITLE13=Zo Alleen
TTITLE14=Unieke Zin
TTITLE15=Fistfucken
TTITLE16=Eerlijkheid
TTITLE17=De Jostiband
TTITLE18=De Bereden Politie
TTITLE19=De Bereden Politie II
EXTD=hans teeuwen YEAR: 2002
EXTT0=
EXTT1=
EXTT2=
EXTT3=
EXTT4=
EXTT5=
EXTT6=
EXTT7=
EXTT8=
EXTT9=
EXTT10=
EXTT11=
EXTT12=
EXTT13=
EXTT14=
EXTT15=
EXTT16=
EXTT17=
EXTT18=
EXTT19=
PLAYORDER=
